<svg width="400" height="519" viewBox="0 0 400 519" fill="none" xmlns="http://www.w3.org/2000/svg">
<path fill-rule="evenodd" clip-rule="evenodd" d="M109.299 293.942C105.212 292.846 100.749 294.551 98.9448 298.379L57.7824 385.69L0.809225 506.539C-2.73621 514.06 6.12032 521.327 12.8039 516.382L372.097 250.527C378.298 245.939 375.052 236.096 367.338 236.096L197.686 236.096C193.501 236.096 190.076 239.34 189.292 243.451C183.566 273.456 157.376 296.123 125.932 296.123C120.181 296.123 114.606 295.365 109.299 293.942Z" fill="#FF9630"/>
<path d="M172 231C172 256.405 151.405 277 126 277C100.595 277 80 256.405 80 231C80 205.595 100.595 185 126 185C151.405 185 172 205.595 172 231Z" fill="#F97353"/>
<path fill-rule="evenodd" clip-rule="evenodd" d="M177.646 0C174.651 0 171.908 1.67212 170.535 4.33341L72.0677 195.283C83.6135 177.68 103.427 166.068 125.932 166.068C154.238 166.068 178.287 184.437 186.981 209.993C188.178 213.51 191.355 216.088 195.07 216.088H288.543C291.537 216.088 294.28 214.416 295.653 211.755L398.833 11.6666C401.579 6.34215 397.713 0 391.723 0H177.646Z" fill="#F13C5B"/>
<path d="M79 185L78.9862 184.835L77.5 185L77.9206 183.654L75.5 184L76.3358 182.537L76 182.5L77.061 180.378L75.5 179.5L77.1604 180.179L77.6122 179.276L77 179L77.6282 178.641L77.5 178L77.9545 178.455L78.05 178.4L78.5 177.5L78.6406 178.062L79.0152 177.848L79.5 177V177.571L79.8913 177.348L80 177V177.286L80.5 177L80.3162 180.492L83.5649 181.954L87 181L85.6744 182.547L86 182.5L85.4634 182.793L85.4536 182.804L84.9663 183.373L86.5 184L84.2105 184.254L84 184.5L83 184.389L82.7059 184.422L84 185.5L82.4286 184.452L82.4186 184.453L80.5 185.5L80.2973 184.689L80.2 184.7L80.0933 184.727L80 186.5V184.75L79 185Z" fill="white"/>
<path d="M72 197.5C72 197.241 72.1394 195.854 72.2829 194.5M72.2829 194.5C72.3614 193.76 72.4411 193.03 72.5 192.5L76 191L72.2829 194.5ZM69.5 193.5L78.5 191L73 189.5L71.5 191L79.5 189.5L72.2829 189.155L77.5 193L75 186.5L80 190L73 187H82.5H71.5L76.5 183L78 188.5L75.5 185.5L81 186.5L79 188L76.5 184.5L77 182.5L79.5 188.5L81.5 185.5H79H78.5V184.5L78 183.5L79.5 184.5L80.5 185L81.5 184.5L74.5 186L78.5 182V182.5V181.5" stroke="white"/>
</svg>
